<svg width="160" height="160" viewBox="0 0 160 160" fill="none" xmlns="http://www.w3.org/2000/svg">
<g clip-path="url(#clip0_189_121)">
<path d="M114.73 90C113.605 79.8614 109.069 70.4058 101.865 63.1836C94.6606 55.9614 85.2166 51.4011 75.0808 50.2504C64.9451 49.0997 54.7192 51.4268 46.0795 56.8502C37.4399 62.2737 30.8992 70.4716 27.53 80.1C19.8094 80.7319 12.6325 84.3258 7.50161 90.1294C2.37074 95.9329 -0.316364 103.496 0.00279173 111.236C0.321947 118.976 3.62261 126.292 9.21388 131.654C14.8052 137.015 22.2536 140.006 30 140H115C121.63 139.964 127.975 137.296 132.638 132.582C137.301 127.868 139.901 121.495 139.865 114.865C139.829 108.235 137.161 101.89 132.447 97.2269C127.733 92.5638 121.36 89.9642 114.73 90Z" fill="#CEE8FF"/>
<path d="M145.44 97.72C143.076 93.5521 139.882 89.914 136.054 87.0311C132.227 84.1482 127.849 82.0818 123.19 80.96C119.643 67.5139 111.135 55.9104 99.3771 48.485C87.6194 41.0597 73.4854 38.3638 59.8201 40.94C63.6549 33.8781 69.527 28.1343 76.6718 24.4562C83.8166 20.7781 91.9032 19.3361 99.8789 20.318C107.855 21.2999 115.35 24.6601 121.389 29.9612C127.429 35.2624 131.732 42.2589 133.74 50.04C139.545 49.7436 145.273 51.4795 149.937 54.9492C154.601 58.4188 157.91 63.4052 159.295 69.0508C160.68 74.6963 160.054 80.6481 157.526 85.8823C154.997 91.1165 150.723 95.2959 145.44 97.72Z" fill="#CEE8FF"/>
</g>
<defs>
<clipPath id="clip0_189_121">
<rect width="160" height="160" fill="white"/>
</clipPath>
</defs>
</svg>
