<svg width="64" height="64" viewBox="0 0 64 64" fill="none" xmlns="http://www.w3.org/2000/svg">
<path d="M46.952 27.986L33.694 6.874C33.5016 6.60402 33.2475 6.38392 32.9529 6.23206C32.6582 6.08019 32.3315 6.00096 32 6.00096C31.6685 6.00096 31.3418 6.08019 31.0471 6.23206C30.7525 6.38392 30.4984 6.60402 30.306 6.874L16.988 28.088C15.1393 31.0725 14.1088 34.491 14 38C14 42.7739 15.8964 47.3523 19.2721 50.7279C22.6477 54.1036 27.2261 56 32 56C36.7739 56 41.3523 54.1036 44.7279 50.7279C48.1036 47.3523 50 42.7739 50 38C49.8853 34.4515 48.8337 30.9966 46.952 27.986ZM32 52C28.2886 51.9947 24.7307 50.518 22.1063 47.8936C19.482 45.2693 18.0053 41.7114 18 38C18.1084 35.2035 18.9483 32.4844 20.436 30.114L22.306 27.134L42.454 47.282C41.1452 48.7643 39.5364 49.9516 37.7342 50.7653C35.9319 51.579 33.9774 51.9985 32 52Z" fill="#CEE8FF"/>
</svg>
