<svg width="32" height="32" viewBox="0 0 32 32" fill="none" xmlns="http://www.w3.org/2000/svg">
<path d="M16 21.3333C14.5147 21.3333 13.2547 20.816 12.22 19.7813C11.1844 18.7449 10.6667 17.4844 10.6667 16C10.6667 14.5156 11.1844 13.2556 12.22 12.22C13.2556 11.1844 14.5156 10.6667 16 10.6667C17.4844 10.6667 18.7449 11.1844 19.7813 12.22C20.8178 13.2556 21.3351 14.5156 21.3333 16C21.3316 17.4844 20.8142 18.7449 19.7813 19.7813C18.7484 20.8178 17.488 21.3351 16 21.3333ZM6.66667 16.6667H2V15.3333H6.66667V16.6667ZM30 16.6667H25.3333V15.3333H30V16.6667ZM15.3333 6.66667V2H16.6667V6.66667H15.3333ZM15.3333 30V25.3333H16.6667V30H15.3333ZM8.99467 9.872L6.11467 7.07467L7.04133 6.08133L9.856 8.928L8.99467 9.872ZM24.96 25.9187L22.1373 23.064L23.0067 22.128L25.8867 24.9253L24.96 25.9187ZM22.128 8.99333L24.9253 6.11333L25.9187 7.04L23.072 9.85467L22.128 8.99333ZM6.08267 24.96L8.936 22.1373L9.82133 23.0067L7.048 25.912L6.08267 24.96Z" fill="#CEE8FF"/>
</svg>
