<svg width="64" height="64" viewBox="0 0 64 64" fill="none" xmlns="http://www.w3.org/2000/svg">
<path d="M60 40C59.9972 34.6555 58.4482 29.426 55.54 24.942L52.652 27.832C54.8427 31.5128 55.9993 35.7166 56 40H60ZM56 18.828L53.172 16L36.038 33.134C34.8188 32.3991 33.4236 32.0073 32 32C30.4178 32 28.8711 32.4692 27.5555 33.3482C26.2399 34.2273 25.2145 35.4767 24.609 36.9385C24.0035 38.4003 23.8451 40.0089 24.1538 41.5607C24.4624 43.1126 25.2244 44.538 26.3432 45.6569C27.462 46.7757 28.8875 47.5376 30.4393 47.8463C31.9912 48.155 33.5997 47.9965 35.0615 47.391C36.5233 46.7855 37.7727 45.7602 38.6518 44.4446C39.5308 43.129 40 41.5823 40 40C39.9931 38.5757 39.6013 37.1798 38.866 35.96L56 18.828ZM32 44C31.2089 44 30.4356 43.7654 29.7778 43.3259C29.12 42.8864 28.6073 42.2616 28.3045 41.5307C28.0018 40.7998 27.9226 39.9956 28.0769 39.2196C28.2312 38.4437 28.6122 37.731 29.1716 37.1716C29.731 36.6122 30.4438 36.2312 31.2197 36.0769C31.9956 35.9225 32.7999 36.0017 33.5308 36.3045C34.2617 36.6072 34.8864 37.1199 35.3259 37.7777C35.7654 38.4355 36 39.2089 36 40C36 41.0609 35.5786 42.0783 34.8285 42.8284C34.0783 43.5786 33.0609 44 32 44ZM32 16C36.2827 16.0011 40.4858 17.1577 44.166 19.348L47.074 16.442C42.848 13.7243 37.9677 12.1959 32.9464 12.0175C27.9252 11.8392 22.9487 13.0174 18.5405 15.4283C14.1323 17.8393 10.4554 21.3937 7.8966 25.7178C5.33782 30.0418 3.99176 34.9756 4.00004 40H8.00004C8.00745 33.6371 10.5384 27.5369 15.0377 23.0376C19.5369 18.5384 25.6371 16.0074 32 16Z" fill="#CEE8FF"/>
</svg>
