<svg width="64" height="64" viewBox="0 0 64 64" fill="none" xmlns="http://www.w3.org/2000/svg">
<g clip-path="url(#clip0_189_203)">
<path d="M30.584 4.584C30.7698 4.39775 30.9905 4.24998 31.2335 4.14915C31.4764 4.04833 31.7369 3.99643 32 3.99643C32.2631 3.99643 32.5236 4.04833 32.7665 4.14915C33.0095 4.24998 33.2302 4.39775 33.416 4.584L39.416 10.584C39.602 10.77 39.7495 10.9907 39.8501 11.2337C39.9507 11.4766 40.0025 11.737 40.0025 12C40.0025 12.263 39.9507 12.5234 39.8501 12.7663C39.7495 13.0093 39.602 13.2301 39.416 13.416C39.23 13.602 39.0093 13.7495 38.7663 13.8501C38.5234 13.9507 38.263 14.0025 38 14.0025C37.737 14.0025 37.4766 13.9507 37.2337 13.8501C36.9907 13.7495 36.77 13.602 36.584 13.416L34 10.828V18C34 18.5304 33.7893 19.0391 33.4142 19.4142C33.0391 19.7893 32.5304 20 32 20C31.4696 20 30.9609 19.7893 30.5858 19.4142C30.2107 19.0391 30 18.5304 30 18V10.828L27.416 13.416C27.23 13.602 27.0093 13.7495 26.7663 13.8501C26.5234 13.9507 26.263 14.0025 26 14.0025C25.737 14.0025 25.4766 13.9507 25.2337 13.8501C24.9907 13.7495 24.77 13.602 24.584 13.416C24.398 13.2301 24.2505 13.0093 24.1499 12.7663C24.0493 12.5234 23.9975 12.263 23.9975 12C23.9975 11.737 24.0493 11.4766 24.1499 11.2337C24.2505 10.9907 24.398 10.77 24.584 10.584L30.584 4.584ZM9.372 17.372C9.74706 16.9971 10.2557 16.7864 10.786 16.7864C11.3163 16.7864 11.8249 16.9971 12.2 17.372L17.856 23.028C18.2203 23.4052 18.4219 23.9104 18.4173 24.4348C18.4128 24.9592 18.2025 25.4608 17.8316 25.8316C17.4608 26.2025 16.9592 26.4128 16.4348 26.4174C15.9104 26.4219 15.4052 26.2203 15.028 25.856L9.372 20.2C8.99706 19.8249 8.78643 19.3163 8.78643 18.786C8.78643 18.2557 8.99706 17.7471 9.372 17.372ZM54.628 17.372C55.0029 17.7471 55.2136 18.2557 55.2136 18.786C55.2136 19.3163 55.0029 19.8249 54.628 20.2L48.972 25.856C48.7875 26.047 48.5668 26.1994 48.3228 26.3042C48.0788 26.409 47.8164 26.4642 47.5508 26.4665C47.2852 26.4688 47.0219 26.4182 46.7761 26.3176C46.5303 26.2171 46.307 26.0686 46.1192 25.8808C45.9314 25.693 45.7829 25.4697 45.6824 25.2239C45.5818 24.9781 45.5312 24.7148 45.5335 24.4492C45.5358 24.1836 45.591 23.9212 45.6958 23.6772C45.8006 23.4332 45.953 23.2125 46.144 23.028L51.8 17.372C52.1751 16.9971 52.6837 16.7864 53.214 16.7864C53.7443 16.7864 54.2529 16.9971 54.628 17.372ZM46.836 46C47.8167 43.5714 48.1863 40.9391 47.9121 38.3344C47.638 35.7296 46.7286 33.2319 45.2638 31.0607C43.799 28.8894 41.8236 27.1109 39.5109 25.8814C37.1983 24.6519 34.6192 24.0089 32 24.0089C29.3808 24.0089 26.8017 24.6519 24.4891 25.8814C22.1764 27.1109 20.201 28.8894 18.7362 31.0607C17.2714 33.2319 16.362 35.7296 16.0879 38.3344C15.8137 40.9391 16.1833 43.5714 17.164 46H2C1.46957 46 0.960859 46.2107 0.585786 46.5858C0.210714 46.9609 0 47.4696 0 48C0 48.5304 0.210714 49.0391 0.585786 49.4142C0.960859 49.7893 1.46957 50 2 50H62C62.5304 50 63.0391 49.7893 63.4142 49.4142C63.7893 49.0391 64 48.5304 64 48C64 47.4696 63.7893 46.9609 63.4142 46.5858C63.0391 46.2107 62.5304 46 62 46H46.84H46.836ZM0 40C0 39.4696 0.210714 38.9609 0.585786 38.5858C0.960859 38.2107 1.46957 38 2 38H10C10.5304 38 11.0391 38.2107 11.4142 38.5858C11.7893 38.9609 12 39.4696 12 40C12 40.5304 11.7893 41.0391 11.4142 41.4142C11.0391 41.7893 10.5304 42 10 42H2C1.46957 42 0.960859 41.7893 0.585786 41.4142C0.210714 41.0391 0 40.5304 0 40ZM52 40C52 39.4696 52.2107 38.9609 52.5858 38.5858C52.9609 38.2107 53.4696 38 54 38H62C62.5304 38 63.0391 38.2107 63.4142 38.5858C63.7893 38.9609 64 39.4696 64 40C64 40.5304 63.7893 41.0391 63.4142 41.4142C63.0391 41.7893 62.5304 42 62 42H54C53.4696 42 52.9609 41.7893 52.5858 41.4142C52.2107 41.0391 52 40.5304 52 40Z" fill="#CEE8FF"/>
</g>
<defs>
<clipPath id="clip0_189_203">
<rect width="64" height="64" fill="white"/>
</clipPath>
</defs>
</svg>
