<svg width="64" height="64" viewBox="0 0 64 64" fill="none" xmlns="http://www.w3.org/2000/svg">
<path d="M21.3333 13.3333C21.3333 10.5044 22.4571 7.79125 24.4574 5.79087C26.4578 3.79048 29.1709 2.66667 31.9999 2.66667C34.8289 2.66667 37.542 3.79048 39.5424 5.79087C41.5428 7.79125 42.6666 10.5044 42.6666 13.3333V27.3467C45.9279 29.6175 48.3793 32.87 49.6641 36.6306C50.9489 40.3912 51 44.4637 49.81 48.2554C48.6199 52.047 46.2508 55.3599 43.0476 57.7119C39.8443 60.0639 35.9739 61.3322 31.9999 61.3322C28.0259 61.3322 24.1556 60.0639 20.9523 57.7119C17.749 55.3599 15.3799 52.047 14.1899 48.2554C12.9998 44.4637 13.0509 40.3912 14.3357 36.6306C15.6205 32.87 18.072 29.6175 21.3333 27.3467V13.3333ZM24.3839 31.72C22.0537 33.3416 20.3019 35.6646 19.3835 38.3509C18.4652 41.0371 18.4281 43.9464 19.2779 46.6551C20.1276 49.3639 21.8198 51.7307 24.108 53.411C26.3962 55.0914 29.161 55.9975 31.9999 55.9975C34.8388 55.9975 37.6036 55.0914 39.8918 53.411C42.18 51.7307 43.8722 49.3639 44.7219 46.6551C45.5717 43.9464 45.5347 41.0371 44.6163 38.3509C43.6979 35.6646 41.9461 33.3416 39.6159 31.72L37.3333 30.128V13.3333C37.3333 11.9188 36.7713 10.5623 35.7712 9.5621C34.771 8.56191 33.4144 8 31.9999 8C30.5854 8 29.2289 8.56191 28.2287 9.5621C27.2285 10.5623 26.6666 11.9188 26.6666 13.3333V30.128L24.3839 31.72ZM29.3333 32.336V13.3333H34.6666V32.336C37.1746 32.9913 39.3583 34.537 40.81 36.6845C42.2618 38.832 42.8823 41.4344 42.5557 44.0059C42.2292 46.5774 40.9778 48.9422 39.0353 50.6586C37.0929 52.375 34.5921 53.3258 31.9999 53.3333C29.4019 53.3359 26.8922 52.3902 24.942 50.6737C22.9917 48.9572 21.735 46.5879 21.4077 44.0106C21.0804 41.4332 21.705 38.825 23.1642 36.6755C24.6235 34.526 26.817 32.9829 29.3333 32.336ZM31.9999 48C33.4144 48 34.771 47.4381 35.7712 46.4379C36.7713 45.4377 37.3333 44.0812 37.3333 42.6667C37.3333 41.2522 36.7713 39.8956 35.7712 38.8954C34.771 37.8952 33.4144 37.3333 31.9999 37.3333C30.5854 37.3333 29.2289 37.8952 28.2287 38.8954C27.2285 39.8956 26.6666 41.2522 26.6666 42.6667C26.6666 44.0812 27.2285 45.4377 28.2287 46.4379C29.2289 47.4381 30.5854 48 31.9999 48Z" fill="#CEE8FF"/>
</svg>
