<svg width="64" height="64" viewBox="0 0 64 64" fill="none" xmlns="http://www.w3.org/2000/svg">
<path d="M6 26C5.20435 26 4.44129 25.6839 3.87868 25.1213C3.31607 24.5587 3 23.7956 3 23C3 22.2044 3.31607 21.4413 3.87868 20.8787C4.44129 20.3161 5.20435 20 6 20H30C30.7956 20 31.5587 19.6839 32.1213 19.1213C32.6839 18.5587 33 17.7956 33 17C33 16.2044 32.6839 15.4413 32.1213 14.8787C31.5587 14.3161 30.7956 14 30 14C29.034 14.0281 28.1157 14.4264 27.435 15.1125C26.8659 15.6313 26.119 15.9114 25.349 15.8948C24.5791 15.8781 23.845 15.566 23.2988 15.0231C22.7527 14.4801 22.4362 13.7479 22.415 12.978C22.3938 12.2082 22.6695 11.4597 23.185 10.8875C24.994 9.07432 27.439 8.03838 30 8C32.3869 8 34.6761 8.94821 36.364 10.636C38.0518 12.3239 39 14.6131 39 17C39 19.3869 38.0518 21.6761 36.364 23.364C34.6761 25.0518 32.3869 26 30 26H6ZM52 17C49.4355 17.0358 46.9865 18.0719 45.175 19.8875C44.6595 20.4597 44.3838 21.2082 44.405 21.978C44.4262 22.7479 44.7427 23.4801 45.2888 24.0231C45.835 24.566 46.5691 24.8781 47.339 24.8948C48.109 24.9114 48.8559 24.6313 49.425 24.1125C50.1081 23.424 51.0305 23.0256 52 23C52.7956 23 53.5587 23.3161 54.1213 23.8787C54.6839 24.4413 55 25.2044 55 26C55 26.7956 54.6839 27.5587 54.1213 28.1213C53.5587 28.6839 52.7956 29 52 29H8C7.20435 29 6.44129 29.3161 5.87868 29.8787C5.31607 30.4413 5 31.2044 5 32C5 32.7956 5.31607 33.5587 5.87868 34.1213C6.44129 34.6839 7.20435 35 8 35H52C54.3869 35 56.6761 34.0518 58.364 32.364C60.0518 30.6761 61 28.3869 61 26C61 23.6131 60.0518 21.3239 58.364 19.636C56.6761 17.9482 54.3869 17 52 17ZM38 38H10C9.20435 38 8.44129 38.3161 7.87868 38.8787C7.31607 39.4413 7 40.2044 7 41C7 41.7956 7.31607 42.5587 7.87868 43.1213C8.44129 43.6839 9.20435 44 10 44H38C38.7956 44 39.5587 44.3161 40.1213 44.8787C40.6839 45.4413 41 46.2044 41 47C41 47.7956 40.6839 48.5587 40.1213 49.1213C39.5587 49.6839 38.7956 50 38 50C37.0333 49.9718 36.1142 49.5735 35.4325 48.8875C35.1605 48.5856 34.83 48.3421 34.461 48.1717C34.0921 48.0014 33.6924 47.9078 33.2862 47.8966C32.8799 47.8854 32.4757 47.9569 32.0979 48.1067C31.7201 48.2565 31.3767 48.4814 31.0885 48.7679C30.8004 49.0544 30.5734 49.3965 30.4214 49.7734C30.2694 50.1502 30.1955 50.5541 30.2043 50.9603C30.2131 51.3666 30.3043 51.7669 30.4725 52.1368C30.6406 52.5068 30.8822 52.8387 31.1825 53.1125C32.9921 54.9263 35.4381 55.9623 38 56C40.3869 56 42.6761 55.0518 44.364 53.364C46.0518 51.6761 47 49.3869 47 47C47 44.6131 46.0518 42.3239 44.364 40.636C42.6761 38.9482 40.3869 38 38 38Z" fill="#CEE8FF"/>
</svg>
