<svg width="96" height="96" viewBox="0 0 96 96" fill="none" xmlns="http://www.w3.org/2000/svg">
<g clip-path="url(#clip0_137_112)">
<path d="M12 55.7042V48C12 43.2701 14.0501 39.9911 18.1504 38.1629C19.5753 37.4955 21.0584 37.1618 22.5996 37.1618H22.8177C23.6901 35.3627 24.9769 33.9336 26.6781 32.8744C28.3792 31.8153 30.2331 31.2857 32.2396 31.2857C33.3446 31.2857 34.0425 31.3583 34.3333 31.5033V20.1429C34.3333 17.067 35.4238 14.4408 37.6048 12.2645C39.7858 10.0882 42.4175 9 45.5 9C48.5825 9 51.2142 10.0882 53.3952 12.2645C55.5762 14.4408 56.6667 17.067 56.6667 20.1429V25.0614L57.4082 23.1462C58.2224 20.9989 59.5819 19.2651 61.4867 17.9448C63.3914 16.6244 65.5069 15.9643 67.8333 15.9643C70.9158 15.9643 73.5475 17.0525 75.7285 19.2288C77.9095 21.4051 79 24.0313 79 27.1071C79 28.442 78.7528 29.7623 78.2585 31.0681L67.8333 58.4029V75.8571C67.8333 78.933 66.7428 81.5592 64.5618 83.7355C62.3809 85.9118 59.7491 87 56.6667 87H27.5286C24.9696 87 22.6796 86.2165 20.6585 84.6496C18.6375 83.0826 17.3216 81.0513 16.7109 78.5558L13.0033 63.8002C12.3344 61.1306 12 58.4319 12 55.7042ZM43.0137 53.5714L39.9167 46.8248L36.6888 39.7299C36.2817 38.8594 35.6783 38.1629 34.8786 37.6406C34.0789 37.1183 33.1992 36.8571 32.2396 36.8571C30.9019 36.8571 29.7533 37.3359 28.7936 38.2935C27.834 39.2511 27.3542 40.3973 27.3542 41.7321C27.3542 42.4866 27.4996 43.154 27.7904 43.7344L34.5078 58.4464C34.7986 57.0246 35.5256 55.8566 36.6888 54.9425C37.852 54.0285 39.1606 53.5714 40.6146 53.5714H43.0137ZM29.4479 67.5C30.7856 67.5 31.9342 67.0212 32.8939 66.0636C33.8535 65.106 34.3333 63.9598 34.3333 62.625C34.3333 61.8705 34.1879 61.2031 33.8971 60.6228L28.1393 48C27.7613 47.1875 27.5141 46.6507 27.3978 46.3895C27.2815 46.1283 27.0343 45.6858 26.6562 45.0619C26.2782 44.4381 25.9365 44.01 25.6312 43.7779C25.3258 43.5458 24.9042 43.3136 24.3662 43.0815C23.8282 42.8493 23.2394 42.7333 22.5996 42.7333C21.1456 42.7333 19.9533 43.1903 19.0228 44.1044C18.0922 45.0184 17.627 46.2009 17.627 47.6518C17.627 48.2321 17.7578 48.7835 18.0195 49.3058L24.9987 64.6272C25.4058 65.4978 26.0092 66.1942 26.8089 66.7165C27.6086 67.2388 28.4883 67.5 29.4479 67.5ZM62.25 57.4018L73.0677 29.1094C73.3003 28.4129 73.4167 27.7455 73.4167 27.1071C73.4167 25.5692 72.8714 24.2561 71.7809 23.168C70.6904 22.0798 69.3746 21.5357 67.8333 21.5357C66.6701 21.5357 65.6087 21.8622 64.6491 22.5151C63.6895 23.168 63.0061 24.0313 62.599 25.1049L53.875 48H51.0833V20.1429C51.0833 18.6049 50.5381 17.2919 49.4476 16.2037C48.3571 15.1155 47.0412 14.5714 45.5 14.5714C43.9588 14.5714 42.6429 15.1155 41.5524 16.2037C40.4619 17.2919 39.9167 18.6049 39.9167 20.1429V43.4297L44.5404 53.5714H53.1771C55.0091 53.5714 56.5503 54.2388 57.8008 55.5737L62.25 60.4051V57.4018ZM17.5833 55.7042C17.5833 58.0837 17.8596 60.3326 18.4121 62.4509L22.1198 77.2065C22.4397 78.4542 23.1012 79.4699 24.1045 80.2534C25.1077 81.0368 26.2491 81.4286 27.5286 81.4286H56.6667C58.2079 81.4286 59.5238 80.8845 60.6143 79.7963C61.7048 78.7081 62.25 77.3951 62.25 75.8571V62.4509L56.7539 56.5313C55.7943 55.4866 54.602 54.9643 53.1771 54.9643H40.2656C38.928 54.9643 37.8084 55.4431 36.9069 56.4007C36.0054 57.3583 35.5547 58.5045 35.5547 59.8393C35.5547 61.1741 36.0636 62.3203 37.0814 63.2779C38.0992 64.2355 39.2769 64.7143 40.6146 64.7143H49.6875V66.1071H40.6146C38.579 66.1071 36.9214 65.2801 35.6419 63.6261C35.4093 65.135 34.7041 66.3901 33.5264 67.3912C32.3486 68.3923 30.9891 68.8929 29.4479 68.8929C28.2266 68.8929 27.0924 68.5592 26.0456 67.8917C24.9987 67.2243 24.2281 66.3393 23.7337 65.2366L17.5833 51.7433V55.7042Z" fill="#CEE8FF"/>
</g>
<defs>
<clipPath id="clip0_137_112">
<rect width="78" height="67" fill="white" transform="matrix(0 1 -1 0 79 9)"/>
</clipPath>
</defs>
</svg>
