<svg width="96" height="96" viewBox="0 0 96 96" fill="none" xmlns="http://www.w3.org/2000/svg">
<path d="M28 46V56M28 46V22C28 20.4087 28.6321 18.8826 29.7574 17.7574C30.8826 16.6321 32.4087 16 34 16C35.5913 16 37.1174 16.6321 38.2426 17.7574C39.3679 18.8826 40 20.4087 40 22M28 46C28 44.4087 27.3679 42.8826 26.2426 41.7574C25.1174 40.6321 23.5913 40 22 40C20.4087 40 18.8826 40.6321 17.7574 41.7574C16.6321 42.8826 16 44.4087 16 46V54C16 61.9565 19.1607 69.5871 24.7868 75.2132C30.4129 80.8393 38.0435 84 46 84C53.9565 84 61.5871 80.8393 67.2132 75.2132C72.8393 69.5871 76 61.9565 76 54V34C76 32.4087 75.3679 30.8826 74.2426 29.7574C73.1174 28.6321 71.5913 28 70 28C68.4087 28 66.8826 28.6321 65.7574 29.7574C64.6321 30.8826 64 32.4087 64 34M40 22V44M40 22V18C40 16.4087 40.6321 14.8826 41.7574 13.7574C42.8826 12.6321 44.4087 12 46 12C47.5913 12 49.1174 12.6321 50.2426 13.7574C51.3679 14.8826 52 16.4087 52 18V22M64 34V22C64 20.4087 63.3679 18.8826 62.2426 17.7574C61.1174 16.6321 59.5913 16 58 16C56.4087 16 54.8826 16.6321 53.7574 17.7574C52.6321 18.8826 52 20.4087 52 22M64 34V44M52 22V44" stroke="#CEE8FF" stroke-width="5" stroke-linecap="round" stroke-linejoin="round"/>
</svg>
