<svg width="96" height="96" viewBox="0 0 96 96" fill="none" xmlns="http://www.w3.org/2000/svg">
<path d="M45 18C43.4812 18.005 41.9884 18.3945 40.6607 19.132C39.3331 19.8696 38.2137 20.9312 37.407 22.218C36.0701 21.4329 34.5503 21.0128 33 21C28.065 21 24 25.065 24 30V40.968L17.718 49.032C13.887 53.988 14.145 61.101 18.282 65.811L25.407 73.875C27.374 76.115 29.7966 77.9094 32.5127 79.1381C35.2288 80.3668 38.1759 81.0016 41.157 81H57C68.565 81 78 71.565 78 60V33C78 28.065 73.935 24 69 24C67.395 24 65.907 24.468 64.593 25.218C63.7862 23.9312 62.6669 22.8696 61.3392 22.132C60.0115 21.3945 58.5187 21.005 57 21C55.395 21 53.907 21.468 52.593 22.218C51.7862 20.9312 50.6669 19.8696 49.3392 19.132C48.0115 18.3945 46.5187 18.005 45 18ZM45 24C46.698 24 48 25.302 48 27V36H54V30C54 28.302 55.302 27 57 27C58.698 27 60 28.302 60 30V36H66V33C66 31.302 67.302 30 69 30C70.698 30 72 31.302 72 33V60C72 68.319 65.319 75 57 75H41.157C39.029 75.0076 36.9241 74.5596 34.9836 73.6862C33.0432 72.8127 31.3122 71.534 29.907 69.936L22.782 61.782C21.6863 60.5534 21.0576 58.9786 21.0061 57.3332C20.9545 55.6878 21.4834 54.0768 22.5 52.782L24 50.811V54H30V30C30 28.302 31.302 27 33 27C34.698 27 36 28.302 36 30V36H42V27C42 25.302 43.302 24 45 24Z" fill="#CEE8FF"/>
</svg>
