<svg width="342" height="342" viewBox="0 0 342 342" fill="none" xmlns="http://www.w3.org/2000/svg">
<circle cx="171" cy="171" r="171" fill="#223F68"/>
<circle cx="171" cy="171" r="145" fill="#244470"/>
<circle cx="171" cy="171" r="123" fill="#514DFF"/>
<circle cx="171" cy="171" r="103" fill="#CEE8FF"/>
<g clip-path="url(#clip0_139_144)">
<mask id="mask0_139_144" style="mask-type:luminance" maskUnits="userSpaceOnUse" x="115" y="123" width="112" height="96">
<path d="M115 123H226.761V219H115V123Z" fill="white"/>
</mask>
<g mask="url(#mask0_139_144)">
<path d="M159.842 219H170.881C177.658 219 182.356 216.062 184.975 210.188C185.932 208.146 186.41 206.021 186.41 203.812V203.5C188.988 202.25 191.035 200.406 192.553 197.969C194.071 195.531 194.829 192.875 194.829 190C194.829 188.417 194.725 187.417 194.518 187H210.795C215.203 187 218.965 185.438 222.084 182.312C225.202 179.188 226.761 175.417 226.761 171C226.761 166.583 225.202 162.812 222.084 159.688C218.965 156.562 215.203 155 210.795 155H203.748L206.492 153.938C209.569 152.771 212.053 150.823 213.945 148.094C215.837 145.365 216.783 142.333 216.783 139C216.783 134.583 215.223 130.812 212.105 127.688C208.987 124.562 205.224 123 200.817 123C198.904 123 197.012 123.354 195.141 124.062L155.975 139H130.966C126.559 139 122.796 140.562 119.678 143.688C116.559 146.812 115 150.583 115 155V196.75C115 200.417 116.123 203.698 118.368 206.594C120.613 209.49 123.523 211.375 127.099 212.25L148.241 217.562C152.067 218.521 155.933 219 159.842 219ZM162.898 174.562L172.564 179L182.73 183.625C183.978 184.208 184.975 185.073 185.724 186.219C186.472 187.365 186.846 188.625 186.846 190C186.846 191.917 186.16 193.562 184.788 194.938C183.416 196.312 181.774 197 179.861 197C178.78 197 177.824 196.792 176.993 196.375L155.913 186.75C157.95 186.333 159.623 185.292 160.933 183.625C162.243 181.958 162.898 180.083 162.898 178V174.562ZM142.94 194C142.94 192.083 143.626 190.438 144.998 189.062C146.37 187.688 148.013 187 149.925 187C151.006 187 151.963 187.208 152.794 187.625L170.881 195.875C172.045 196.417 172.814 196.771 173.188 196.938C173.562 197.104 174.196 197.458 175.09 198C175.984 198.542 176.598 199.031 176.93 199.469C177.263 199.906 177.595 200.51 177.928 201.281C178.261 202.052 178.427 202.896 178.427 203.812C178.427 205.896 177.772 207.604 176.462 208.938C175.153 210.271 173.458 210.938 171.38 210.938C170.548 210.938 169.758 210.75 169.01 210.375L147.056 200.375C145.809 199.792 144.811 198.927 144.063 197.781C143.314 196.635 142.94 195.375 142.94 194ZM157.409 147L197.948 131.5C198.946 131.167 199.902 131 200.817 131C203.02 131 204.902 131.781 206.461 133.344C208.02 134.906 208.8 136.792 208.8 139C208.8 140.667 208.332 142.188 207.396 143.562C206.461 144.938 205.224 145.917 203.685 146.5L170.881 159V163H210.795C212.999 163 214.88 163.781 216.44 165.344C217.999 166.906 218.778 168.792 218.778 171C218.778 173.208 217.999 175.094 216.44 176.656C214.88 178.219 212.999 179 210.795 179H177.429L162.898 172.375V160C162.898 157.375 161.941 155.167 160.029 153.375L153.106 147H157.409ZM159.842 211C156.432 211 153.21 210.604 150.175 209.812L129.033 204.5C127.245 204.042 125.789 203.094 124.667 201.656C123.544 200.219 122.983 198.583 122.983 196.75V155C122.983 152.792 123.763 150.906 125.322 149.344C126.881 147.781 128.762 147 130.966 147H150.175L158.657 154.875C160.154 156.25 160.902 157.958 160.902 160V178.5C160.902 180.417 160.216 182.021 158.844 183.312C157.472 184.604 155.829 185.25 153.917 185.25C152.004 185.25 150.362 184.521 148.99 183.062C147.618 181.604 146.932 179.917 146.932 178V165H144.936V178C144.936 180.917 146.121 183.292 148.491 185.125C146.329 185.458 144.531 186.469 143.096 188.156C141.662 189.844 140.945 191.792 140.945 194C140.945 195.75 141.423 197.375 142.379 198.875C143.335 200.375 144.603 201.479 146.183 202.188L165.517 211H159.842Z" fill="#1F2B3E"/>
</g>
</g>
<defs>
<clipPath id="clip0_139_144">
<rect width="112" height="96" fill="white" transform="translate(115 123)"/>
</clipPath>
</defs>
</svg>
