<svg width="342" height="342" viewBox="0 0 342 342" fill="none" xmlns="http://www.w3.org/2000/svg">
<circle cx="171" cy="171" r="171" fill="#223F68"/>
<circle cx="171" cy="171" r="145" fill="#244470"/>
<circle cx="171" cy="171" r="123" fill="#514DFF"/>
<circle cx="171" cy="171" r="103" fill="#CEE8FF"/>
<path d="M174.333 137.667H157.667M174.333 137.667H214.333C216.985 137.667 219.529 138.72 221.404 140.596C223.28 142.471 224.333 145.015 224.333 147.667C224.333 150.319 223.28 152.862 221.404 154.738C219.529 156.613 216.985 157.667 214.333 157.667M174.333 137.667C176.985 137.667 179.529 136.613 181.404 134.738C183.28 132.862 184.333 130.319 184.333 127.667C184.333 125.015 183.28 122.471 181.404 120.596C179.529 118.72 176.985 117.667 174.333 117.667H161C147.739 117.667 135.021 122.935 125.645 132.311C116.268 141.688 111 154.406 111 167.667C111 180.928 116.268 193.645 125.645 203.022C135.021 212.399 147.739 217.667 161 217.667H194.333C196.985 217.667 199.529 216.613 201.404 214.738C203.28 212.862 204.333 210.319 204.333 207.667C204.333 205.014 203.28 202.471 201.404 200.596C199.529 198.72 196.985 197.667 194.333 197.667M214.333 157.667H177.667M214.333 157.667H221C223.652 157.667 226.196 158.72 228.071 160.596C229.946 162.471 231 165.015 231 167.667C231 170.319 229.946 172.862 228.071 174.738C226.196 176.613 223.652 177.667 221 177.667H214.333M194.333 197.667H214.333C216.985 197.667 219.529 196.613 221.404 194.738C223.28 192.862 224.333 190.319 224.333 187.667C224.333 185.015 223.28 182.471 221.404 180.596C219.529 178.72 216.985 177.667 214.333 177.667M194.333 197.667H177.667M214.333 177.667H177.667" stroke="#1F2B3E" stroke-width="8" stroke-linecap="round" stroke-linejoin="round"/>
</svg>
