<svg width="342" height="342" viewBox="0 0 342 342" fill="none" xmlns="http://www.w3.org/2000/svg">
<circle cx="171" cy="171" r="171" fill="#223F68"/>
<circle cx="171" cy="171" r="145" fill="#244470"/>
<circle cx="171" cy="171" r="123" fill="#514DFF"/>
<circle cx="171" cy="171" r="103" fill="#CEE8FF"/>
<path d="M221 166C220.992 163.469 220.343 160.981 219.113 158.768C217.884 156.555 216.115 154.69 213.97 153.345C215.279 151.117 215.979 148.584 216 146C216 137.775 209.225 131 201 131H182.72L169.28 120.53C161.02 114.145 149.165 114.575 141.315 121.47L127.875 133.345C124.142 136.623 121.151 140.661 119.103 145.188C117.055 149.715 115.997 154.626 116 159.595V186C116 205.275 131.725 221 151 221H196C204.225 221 211 214.225 211 206C211 203.325 210.22 200.845 208.97 198.655C211.115 197.31 212.884 195.445 214.113 193.232C215.343 191.019 215.992 188.531 216 186C216 183.325 215.22 180.845 213.97 178.655C216.115 177.31 217.884 175.445 219.113 173.232C220.343 171.019 220.992 168.531 221 166ZM211 166C211 168.83 208.83 171 206 171H191V181H201C203.83 181 206 183.17 206 186C206 188.83 203.83 191 201 191H191V201H196C198.83 201 201 203.17 201 206C201 208.83 198.83 211 196 211H151C137.135 211 126 199.865 126 186V159.595C125.987 156.048 126.734 152.54 128.19 149.306C129.645 146.072 131.777 143.187 134.44 140.845L148.03 128.97C150.078 127.144 152.702 126.096 155.445 126.01C158.187 125.924 160.872 126.806 163.03 128.5L166.315 131H161V141H201C203.83 141 206 143.17 206 146C206 148.83 203.83 151 201 151H191V161H206C208.83 161 211 163.17 211 166Z" fill="#1F2B3E"/>
</svg>
