<svg width="342" height="342" viewBox="0 0 342 342" fill="none" xmlns="http://www.w3.org/2000/svg">
<circle cx="171" cy="171" r="171" transform="matrix(-1 0 0 1 342 0)" fill="#223F68"/>
<circle cx="145" cy="145" r="145" transform="matrix(-1 0 0 1 316 26)" fill="#244470"/>
<circle cx="123" cy="123" r="123" transform="matrix(-1 0 0 1 294 48)" fill="#FF4D4D"/>
<circle cx="103" cy="103" r="103" transform="matrix(-1 0 0 1 274 68)" fill="#CEE8FF"/>
<path d="M121 166C121.008 163.469 121.657 160.981 122.887 158.768C124.116 156.555 125.885 154.69 128.03 153.345C126.721 151.117 126.021 148.584 126 146C126 137.775 132.775 131 141 131H159.28L172.72 120.53C180.98 114.145 192.835 114.575 200.685 121.47L214.125 133.345C217.858 136.623 220.849 140.661 222.897 145.188C224.945 149.715 226.003 154.626 226 159.595V186C226 205.275 210.275 221 191 221H146C137.775 221 131 214.225 131 206C131 203.325 131.78 200.845 133.03 198.655C130.885 197.31 129.116 195.445 127.887 193.232C126.657 191.019 126.008 188.531 126 186C126 183.325 126.78 180.845 128.03 178.655C125.885 177.31 124.116 175.445 122.887 173.232C121.657 171.019 121.008 168.531 121 166ZM131 166C131 168.83 133.17 171 136 171H151V181H141C138.17 181 136 183.17 136 186C136 188.83 138.17 191 141 191H151V201H146C143.17 201 141 203.17 141 206C141 208.83 143.17 211 146 211H191C204.865 211 216 199.865 216 186V159.595C216.013 156.048 215.266 152.54 213.81 149.306C212.355 146.072 210.223 143.187 207.56 140.845L193.97 128.97C191.922 127.144 189.298 126.096 186.555 126.01C183.813 125.924 181.128 126.806 178.97 128.5L175.685 131H181V141H141C138.17 141 136 143.17 136 146C136 148.83 138.17 151 141 151H151V161H136C133.17 161 131 163.17 131 166Z" fill="#1F2B3E"/>
</svg>
