<svg width="342" height="342" viewBox="0 0 342 342" fill="none" xmlns="http://www.w3.org/2000/svg">
<circle cx="171" cy="171" r="171" transform="matrix(-1 0 0 1 342 0)" fill="#223F68"/>
<circle cx="145" cy="145" r="145" transform="matrix(-1 0 0 1 316 26)" fill="#244470"/>
<circle cx="123" cy="123" r="123" transform="matrix(-1 0 0 1 294 48)" fill="#FF4D4D"/>
<circle cx="103" cy="103" r="103" transform="matrix(-1 0 0 1 274 68)" fill="#CEE8FF"/>
<g clip-path="url(#clip0_139_193)">
<mask id="mask0_139_193" style="mask-type:luminance" maskUnits="userSpaceOnUse" x="115" y="123" width="112" height="96">
<path d="M227 123H115.239V219H227V123Z" fill="white"/>
</mask>
<g mask="url(#mask0_139_193)">
<path d="M182.158 219H171.119C164.342 219 159.644 216.062 157.025 210.188C156.068 208.146 155.59 206.021 155.59 203.812V203.5C153.012 202.25 150.965 200.406 149.447 197.969C147.929 195.531 147.171 192.875 147.171 190C147.171 188.417 147.275 187.417 147.482 187H131.205C126.797 187 123.035 185.438 119.916 182.312C116.798 179.188 115.239 175.417 115.239 171C115.239 166.583 116.798 162.812 119.916 159.688C123.035 156.562 126.797 155 131.205 155H138.252L135.508 153.938C132.431 152.771 129.947 150.823 128.055 148.094C126.163 145.365 125.217 142.333 125.217 139C125.217 134.583 126.777 130.812 129.895 127.688C133.013 124.562 136.776 123 141.183 123C143.096 123 144.988 123.354 146.859 124.062L186.025 139H211.034C215.441 139 219.204 140.562 222.322 143.688C225.441 146.812 227 150.583 227 155V196.75C227 200.417 225.877 203.698 223.632 206.594C221.387 209.49 218.477 211.375 214.901 212.25L193.759 217.562C189.933 218.521 186.067 219 182.158 219ZM179.102 174.562L169.436 179L159.27 183.625C158.022 184.208 157.025 185.073 156.276 186.219C155.528 187.365 155.154 188.625 155.154 190C155.154 191.917 155.84 193.562 157.212 194.938C158.584 196.312 160.226 197 162.139 197C163.22 197 164.176 196.792 165.007 196.375L186.087 186.75C184.05 186.333 182.377 185.292 181.067 183.625C179.757 181.958 179.102 180.083 179.102 178V174.562ZM199.06 194C199.06 192.083 198.374 190.438 197.002 189.062C195.63 187.688 193.987 187 192.075 187C190.994 187 190.037 187.208 189.206 187.625L171.119 195.875C169.955 196.417 169.186 196.771 168.812 196.938C168.438 197.104 167.804 197.458 166.91 198C166.016 198.542 165.402 199.031 165.07 199.469C164.737 199.906 164.405 200.51 164.072 201.281C163.739 202.052 163.573 202.896 163.573 203.812C163.573 205.896 164.228 207.604 165.538 208.938C166.847 210.271 168.542 210.938 170.62 210.938C171.452 210.938 172.242 210.75 172.99 210.375L194.944 200.375C196.191 199.792 197.189 198.927 197.937 197.781C198.686 196.635 199.06 195.375 199.06 194ZM184.591 147L144.052 131.5C143.054 131.167 142.098 131 141.183 131C138.98 131 137.098 131.781 135.539 133.344C133.98 134.906 133.2 136.792 133.2 139C133.2 140.667 133.668 142.188 134.604 143.562C135.539 144.938 136.776 145.917 138.315 146.5L171.119 159V163H131.205C129.001 163 127.12 163.781 125.56 165.344C124.001 166.906 123.222 168.792 123.222 171C123.222 173.208 124.001 175.094 125.56 176.656C127.12 178.219 129.001 179 131.205 179H164.571L179.102 172.375V160C179.102 157.375 180.059 155.167 181.971 153.375L188.894 147H184.591ZM182.158 211C185.568 211 188.79 210.604 191.825 209.812L212.967 204.5C214.755 204.042 216.211 203.094 217.333 201.656C218.456 200.219 219.017 198.583 219.017 196.75V155C219.017 152.792 218.237 150.906 216.678 149.344C215.119 147.781 213.238 147 211.034 147H191.825L183.343 154.875C181.846 156.25 181.098 157.958 181.098 160V178.5C181.098 180.417 181.784 182.021 183.156 183.312C184.528 184.604 186.171 185.25 188.083 185.25C189.996 185.25 191.638 184.521 193.01 183.062C194.382 181.604 195.068 179.917 195.068 178V165H197.064V178C197.064 180.917 195.879 183.292 193.509 185.125C195.671 185.458 197.469 186.469 198.904 188.156C200.338 189.844 201.055 191.792 201.055 194C201.055 195.75 200.577 197.375 199.621 198.875C198.665 200.375 197.397 201.479 195.817 202.188L176.483 211H182.158Z" fill="#1F2B3E"/>
</g>
</g>
<defs>
<clipPath id="clip0_139_193">
<rect width="112" height="96" fill="white" transform="matrix(-1 0 0 1 227 123)"/>
</clipPath>
</defs>
</svg>
