<svg width="342" height="342" viewBox="0 0 342 342" fill="none" xmlns="http://www.w3.org/2000/svg">
<circle cx="171" cy="171" r="171" transform="matrix(-1 0 0 1 342 0)" fill="#223F68"/>
<circle cx="145" cy="145" r="145" transform="matrix(-1 0 0 1 316 26)" fill="#244470"/>
<circle cx="123" cy="123" r="123" transform="matrix(-1 0 0 1 294 48)" fill="#FF4D4D"/>
<circle cx="103" cy="103" r="103" transform="matrix(-1 0 0 1 274 68)" fill="#CEE8FF"/>
<path d="M167.667 137.667H184.333M167.667 137.667H127.667C125.015 137.667 122.471 138.72 120.596 140.596C118.72 142.471 117.667 145.015 117.667 147.667C117.667 150.319 118.72 152.862 120.596 154.738C122.471 156.613 125.015 157.667 127.667 157.667M167.667 137.667C165.015 137.667 162.471 136.613 160.596 134.738C158.72 132.862 157.667 130.319 157.667 127.667C157.667 125.015 158.72 122.471 160.596 120.596C162.471 118.72 165.015 117.667 167.667 117.667H181C194.261 117.667 206.979 122.935 216.355 132.311C225.732 141.688 231 154.406 231 167.667C231 180.928 225.732 193.645 216.355 203.022C206.979 212.399 194.261 217.667 181 217.667H147.667C145.015 217.667 142.471 216.613 140.596 214.738C138.72 212.862 137.667 210.319 137.667 207.667C137.667 205.014 138.72 202.471 140.596 200.596C142.471 198.72 145.015 197.667 147.667 197.667M127.667 157.667H164.333M127.667 157.667H121C118.348 157.667 115.804 158.72 113.929 160.596C112.054 162.471 111 165.015 111 167.667C111 170.319 112.054 172.862 113.929 174.738C115.804 176.613 118.348 177.667 121 177.667H127.667M147.667 197.667H127.667C125.015 197.667 122.471 196.613 120.596 194.738C118.72 192.862 117.667 190.319 117.667 187.667C117.667 185.015 118.72 182.471 120.596 180.596C122.471 178.72 125.015 177.667 127.667 177.667M147.667 197.667H164.333M127.667 177.667H164.333" stroke="#1F2B3E" stroke-width="8" stroke-linecap="round" stroke-linejoin="round"/>
</svg>
