<svg width="69" height="69" viewBox="0 0 69 69" fill="none" xmlns="http://www.w3.org/2000/svg">
<path d="M66.8438 34.0687C67.7063 50.6719 52.7203 64.6875 34.6078 64.6875C16.4953 64.6875 0.431258 49.8094 2.26407 33.3141C4.85157 10.1344 21.9938 8.62499 34.6078 8.62499C42.2625 8.62499 64.9031 1.94062 66.8438 34.0687Z" fill="#EF4D3C"/>
<path d="M11.8594 29.1094C18.5437 18.7594 29.9719 21.7781 32.9906 17.8969C32.9906 25.3359 38.3812 21.6703 41.0766 25.0125C44.5266 29.325 45.8203 36.9797 49.9172 38.4891C45.9281 29.9719 52.3969 30.2953 43.3406 18.8672C48.1922 21.8859 50.6719 18.8672 57.2484 21.5625C51.5344 12.5062 42.5859 15.0937 42.5859 15.0937C42.5859 15.0937 48.1922 9.91874 52.9359 12.6141C47.9766 5.2828 33.6375 14.5547 33.6375 14.5547C33.6375 14.5547 27.7078 4.4203 14.9859 15.0937C22.425 12.075 30.6187 15.0937 30.6187 15.0937C30.6187 15.0937 17.1422 11.7516 11.8594 29.1094Z" fill="#8CC63E"/>
<path d="M11.8594 29.1094C11.8594 29.1094 19.7297 14.5547 33.3141 15.8484C21.3469 10.35 11.8594 21.9937 11.8594 29.1094Z" fill="#64892F"/>
<path d="M14.9858 15.0937C14.9858 15.0937 24.9046 7.65469 33.6374 15.0937C31.0499 6.0375 17.789 10.2422 14.9858 15.0937ZM35.7937 16.0641C48.9468 22.1016 44.5265 29.0016 49.9171 38.7047C46.2515 30.6188 55.3077 16.0641 35.7937 16.0641Z" fill="#64892F"/>
<path d="M30.6187 15.0938C30.6187 15.0938 33.6374 10.5656 34.7155 4.95938C34.8233 4.2047 38.0577 4.31251 37.9499 5.0672C36.8718 12.2906 39.7827 16.2797 39.7827 16.2797C39.7827 16.2797 37.5187 17.0344 34.7155 17.0344C31.9124 17.1422 30.6187 15.0938 30.6187 15.0938Z" fill="#64892F"/>
<path d="M36.333 5.60625C37.2262 5.60625 37.9502 5.31663 37.9502 4.95937C37.9502 4.60212 37.2262 4.3125 36.333 4.3125C35.4399 4.3125 34.7158 4.60212 34.7158 4.95937C34.7158 5.31663 35.4399 5.60625 36.333 5.60625Z" fill="#8CC63E"/>
</svg>
